# xmcd CD Database Entry
#
# Track frame offsets:
# 150
# 16955
# 33836
# 55050
# 82690
# 97598
# 116376
# 138072
# 158522
# 173644
# 192151
# 208126
# 226085
# 242114
# 259699
# 274716
#
# Disc length: 3925 seconds
#
# Revision: 4
# Processed by: cddbd v1.4PL0 Copyright (c) Steve Scherf et al.
# Submitted via: tcd 2.0b
#
DISCID=b30f5310
DTITLE=Various Artist - Celebrating Black Music
DYEAR=2001
DGENRE=Rap
TTITLE0=Lil Romeo-My Baby
TTITLE1=JT Money-Superchick
TTITLE2=Dark Blu-If you gonna go
TTITLE3=Tank-Slowly
TTITLE4=Bathgate-Bump That
TTITLE5=Timbaland and Magoo-Drop
TTITLE6=N.E.R.D.-Run To The   Sun
TTITLE7=Yukmouth-Oh Boy!
TTITLE8=Nas-Gangsta Tears
TTITLE9=Doracell-Get  Ready
TTITLE10=Athena Cage-Hey Hey
TTITLE11=Ren-Breathe Again
TTITLE12=Londa Larmond-Once
TTITLE13=Liz McCComb-What Happened to the Love
TTITLE14=Eleven V-My Destiny
TTITLE15=Pru-Aaroma
EXTD=YEAR: 2001 ID3G:  15
EXTT0=
EXTT1=
EXTT2=
EXTT3=
EXTT4=
EXTT5=
EXTT6=
EXTT7=
EXTT8=
EXTT9=
EXTT10=
EXTT11=
EXTT12=
EXTT13=
EXTT14=
EXTT15=
PLAYORDER=
